<?xml version="1.0" encoding="UTF-8" standalone="no"?>
<!DOCTYPE svg PUBLIC "-//W3C//DTD SVG 1.1//EN" "http://www.w3.org/Graphics/SVG/1.1/DTD/svg11.dtd">
<svg version="1.1" xmlns="http://www.w3.org/2000/svg" xmlns:xlink="http://www.w3.org/1999/xlink" preserveAspectRatio="xMidYMid meet" viewBox="0 0 640 640" width="700" height="700"><defs><path d="" id="b2yWYziR3n"></path><path d="M84.82 108.76L506.23 108.76L506.23 608.92L84.82 608.92L84.82 108.76Z" id="c6QxjB2bI"></path><path d="M284.82 368.42L471.4 33.21L449.32 54.42L284.82 309.01L252.8 198.69L176.62 198.69L284.82 368.42Z" id="c2srNr8Rf4"></path><path d="M480.91 206.03C480.91 211.54 476.43 216.03 470.91 216.03C465.39 216.03 460.91 211.54 460.91 206.03C460.91 200.51 465.39 196.03 470.91 196.03C476.43 196.03 480.91 200.51 480.91 206.03Z" id="a24X1BjFv"></path><path d="M480.91 445.02C480.91 450.54 476.43 455.02 470.91 455.02C465.39 455.02 460.91 450.54 460.91 445.02C460.91 439.5 465.39 435.02 470.91 435.02C476.43 435.02 480.91 439.5 480.91 445.02Z" id="a5SeT6CEDB"></path><path d="M480.91 265.4C480.91 270.92 476.43 275.4 470.91 275.4C465.39 275.4 460.91 270.92 460.91 265.4C460.91 259.88 465.39 255.4 470.91 255.4C476.43 255.4 480.91 259.88 480.91 265.4Z" id="a1qDSXsKHf"></path><path d="M480.91 360.74C480.91 366.25 476.43 370.74 470.91 370.74C465.39 370.74 460.91 366.25 460.91 360.74C460.91 355.22 465.39 350.74 470.91 350.74C476.43 350.74 480.91 355.22 480.91 360.74Z" id="b2fyeB7sxu"></path><path d="M471.4 539.03L471.4 206.03" id="c3fhj0TZLZ"></path><path d="M480.91 535.04C480.91 540.56 476.43 545.04 470.91 545.04C465.39 545.04 460.91 540.56 460.91 535.04C460.91 529.52 465.39 525.04 470.91 525.04C476.43 525.04 480.91 529.52 480.91 535.04Z" id="e3RLIqJTcv"></path><path d="M460.91 490.58L421.53 490.58L460.91 490.58Z" id="biGGRKnCo"></path><path d="M395.56 512.61L460.91 512.61L395.56 512.61Z" id="c1jIThM9K"></path><path d="M365.76 466.85L460.91 466.85L365.76 466.85Z" id="b7rzfdYxaU"></path><path d="M320 427.48L460.91 427.48L320 427.48Z" id="dyWmplUpK"></path><path d="M378.53 404.07L460.91 404.07L378.53 404.07Z" id="etEbkizjE"></path><path d="M304.04 380.66L460.91 380.66L304.04 380.66Z" id="fwvJChE9H"></path><path d="M350.86 336.49L460.91 336.49L350.86 336.49Z" id="h3mHtr78Hg"></path><path d="M395.56 311.49L460.91 311.49L395.56 311.49Z" id="gEOtq6xKX"></path><path d="M382.47 287.01L460.91 287.01L382.47 287.01Z" id="c3QeydKAg"></path><path d="M405.88 245.51L460.91 245.51L405.88 245.51Z" id="bZ2Ie82jm"></path><path d="M421.69 223.16L460.91 223.16L421.69 223.16Z" id="abvICrhRl"></path></defs><g><g><g><g><use xlink:href="#b2yWYziR3n" opacity="1" fill-opacity="0" stroke="#000000" stroke-width="1" stroke-opacity="1"></use></g></g><g><use xlink:href="#c6QxjB2bI" opacity="1" fill="#000000" fill-opacity="1"></use></g><g><use xlink:href="#c2srNr8Rf4" opacity="1" fill="#ffffff" fill-opacity="1"></use><g><use xlink:href="#c2srNr8Rf4" opacity="1" fill-opacity="0" stroke="#000000" stroke-width="3" stroke-opacity="1"></use></g></g><g><use xlink:href="#a24X1BjFv" opacity="1" fill="#ffffff" fill-opacity="1"></use><g><use xlink:href="#a24X1BjFv" opacity="1" fill-opacity="0" stroke="#ffffff" stroke-width="1" stroke-opacity="1"></use></g></g><g><use xlink:href="#a5SeT6CEDB" opacity="1" fill="#fefefe" fill-opacity="1"></use></g><g><use xlink:href="#a1qDSXsKHf" opacity="1" fill="#ffffff" fill-opacity="1"></use></g><g><use xlink:href="#b2fyeB7sxu" opacity="1" fill="#ffffff" fill-opacity="1"></use><g><use xlink:href="#b2fyeB7sxu" opacity="1" fill-opacity="0" stroke="#ba15d2" stroke-width="1" stroke-opacity="1"></use></g></g><g><g><use xlink:href="#c3fhj0TZLZ" opacity="1" fill-opacity="0" stroke="#ffffff" stroke-width="6" stroke-opacity="1"></use></g></g><g><use xlink:href="#e3RLIqJTcv" opacity="1" fill="#ffffff" fill-opacity="1"></use><g><use xlink:href="#e3RLIqJTcv" opacity="1" fill-opacity="0" stroke="#ffffff" stroke-width="1" stroke-opacity="1"></use></g></g><g><g><use xlink:href="#biGGRKnCo" opacity="1" fill-opacity="0" stroke="#ffffff" stroke-width="8" stroke-opacity="1"></use></g></g><g><g><use xlink:href="#c1jIThM9K" opacity="1" fill-opacity="0" stroke="#ffffff" stroke-width="8" stroke-opacity="1"></use></g></g><g><g><use xlink:href="#b7rzfdYxaU" opacity="1" fill-opacity="0" stroke="#ffffff" stroke-width="8" stroke-opacity="1"></use></g></g><g><g><use xlink:href="#dyWmplUpK" opacity="1" fill-opacity="0" stroke="#fffcfc" stroke-width="8" stroke-opacity="1"></use></g></g><g><g><use xlink:href="#etEbkizjE" opacity="1" fill-opacity="0" stroke="#ffffff" stroke-width="8" stroke-opacity="1"></use></g></g><g><g><use xlink:href="#fwvJChE9H" opacity="1" fill-opacity="0" stroke="#ffffff" stroke-width="8" stroke-opacity="1"></use></g></g><g><g><use xlink:href="#h3mHtr78Hg" opacity="1" fill-opacity="0" stroke="#ffffff" stroke-width="8" stroke-opacity="1"></use></g></g><g><g><use xlink:href="#gEOtq6xKX" opacity="1" fill-opacity="0" stroke="#ffffff" stroke-width="8" stroke-opacity="1"></use></g></g><g><g><use xlink:href="#c3QeydKAg" opacity="1" fill-opacity="0" stroke="#ffffff" stroke-width="8" stroke-opacity="1"></use></g></g><g><g><use xlink:href="#bZ2Ie82jm" opacity="1" fill-opacity="0" stroke="#ffffff" stroke-width="8" stroke-opacity="1"></use></g></g><g><g><use xlink:href="#abvICrhRl" opacity="1" fill-opacity="0" stroke="#fff9f9" stroke-width="8" stroke-opacity="1"></use></g></g></g></g></svg>